<svg width="70" height="70" viewBox="0 0 221 224" fill="none" xmlns="http://www.w3.org/2000/svg">
<path d="M220.5 112C220.5 173.586 171.245 223.5 110.5 223.5C49.755 223.5 0.5 173.586 0.5 112C0.5 50.4139 49.755 0.5 110.5 0.5C171.245 0.5 220.5 50.4139 220.5 112Z" fill="#004953" stroke="#004953"/>
<rect x="50" y="39" width="120" height="20" fill="#D9D9D9"/>
<rect x="50" y="59" width="20" height="75" fill="#D9D9D9"/>
<rect x="70" y="114" width="60" height="20" fill="#D9D9D9"/>
<rect x="95" y="89" width="75" height="20" fill="#D9D9D9"/>
<rect x="150" y="109" width="20" height="75" fill="#D9D9D9"/>
<rect x="50" y="164" width="100" height="20" fill="#D9D9D9"/>
<path d="M36 174L66.75 152.349V195.651L36 174Z" fill="#D9D9D9"/>
<path d="M185 49L154.25 70.6506V27.3494L185 49Z" fill="#D9D9D9"/>
</svg>
